# xmcd CD database file
#
# Track frame offsets:
#	150
#	21113
#	40292
#	64260
#	95327
#	108421
#	119250
#	145351
#	172718
#	198356
#
# Disc length: 2913 seconds
#
# Revision: 0
# Processed by: cddbd v1.4PL0 Copyright (c) Steve Scherf et al.
# Submitted via: CDex 1.50
#
DISCID=830b5f0a
DTITLE=various artist - Audiophile Jazz Prologue - part 01
DYEAR=2003
DGENRE=Jazz
TTITLE0=Autumn Leaves (Johnny Mercer)
TTITLE1=Amsterdam After Dark (George Coleman)
TTITLE2=My One And Only Love (Wood/Mellin)
TTITLE3=Stardust (Hoagy Charmicheal)
TTITLE4=Night And Day (Cole Porter)
TTITLE5=You'd Be So Nice To Come Home To (Comden/Green/Styne)
TTITLE6=Round Midnight (Thelonious Monk)
TTITLE7=Broadway (Bird/McRae/Woode)
TTITLE8=If You Never Come to Me (Antonio Carlos Jobim)
TTITLE9=You've Got A Friend *Lovely Version (Carole King)
EXTD=YEAR: 2003
EXTT0=
EXTT1=
EXTT2=
EXTT3=
EXTT4=
EXTT5=
EXTT6=
EXTT7=
EXTT8=
EXTT9=
PLAYORDER=
